inDegrees=yes
name=ik_S40_A09_T02
DataType=double
version=3
OpenSimVersion=4.3-2021-08-27-4bc7ad9
endheader
time	pelvis_tilt	pelvis_list	pelvis_rotation	pelvis_tx	pelvis_ty	pelvis_tz	hip_flexion_r	hip_adduction_r	hip_rotation_r	knee_angle_r	knee_angle_r_beta	ankle_angle_r	subtalar_angle_r	mtp_angle_r	hip_flexion_l	hip_adduction_l	hip_rotation_l	knee_angle_l	knee_angle_l_beta	ankle_angle_l	subtalar_angle_l	mtp_angle_l	lumbar_extension	lumbar_bending	lumbar_rotation	arm_flex_r	arm_add_r	arm_rot_r	elbow_flex_r	pro_sup_r	wrist_flex_r	wrist_dev_r	arm_flex_l	arm_add_l	arm_rot_l	elbow_flex_l	pro_sup_l	wrist_flex_l	wrist_dev_l
11.29999999999985	-9.527366332351903	-2.318472030556159	27.32084345894597	0	0.9399999999999999	0	44.6295463599282	-10.19294879297735	-10.30081766486098	54.44223477175618	0.9501962489108888	0	0	0	44.6295463599282	-10.19294879297735	-10.30081766486098	54.44223477175618	0.9501962489108888	0	0	0	-8.48182554415942	-2.942895225690698	8.189728368224827	76.50569923913251	5.793790889410732	21.18560703953012	27.81352339286035	136.7175650218974	0	0	72.57976931099074	6.191468393931833	13.07947235128716	30.81425221492239	97.88142819893208	0	0
11.31999999999985	-9.516283821511019	-2.301407325717365	27.29080576638564	0	0.9399999999999999	0	44.62974958775455	-10.19258404342049	-10.30045121765475	54.44244232548921	0.9501998714069051	0	0	0	44.62974958775455	-10.19258404342049	-10.30045121765475	54.44244232548921	0.9501998714069051	0	0	0	-8.464265317766849	-2.933904714889354	8.205140425009066	76.55992549553184	5.927371350076242	20.88998140577818	27.7738560140173	137.5579490979069	0	0	72.55930250484569	6.181185987655358	13.05271836254285	30.73900759483373	97.77682512307901	0	0
11.33999999999985	-9.507209285393783	-2.25952040264105	27.32184741064459	0	0.9399999999999999	0	44.62984544879843	-10.19241191756973	-10.30027827446924	54.44254006856568	0.9502015773454106	0	0	0	44.62984544879843	-10.19241191756973	-10.30027827446924	54.44254006856568	0.9502015773454106	0	0	0	-8.438847411961905	-2.893305350623308	8.166184481523826	76.52305553681475	6.132702466650148	20.79915034141915	27.6683989024445	138.0534091312575	0	0	72.5341270367567	6.187365483012951	12.96245691780181	30.67391337200744	97.77054067251851	0	0
11.35999999999985	-9.509120269400743	-2.243329415200075	27.35938800181392	0	0.9399999999999999	0	44.62992012573329	-10.19227665154422	-10.30014275980272	54.44261556914478	0.950202895079103	1.7957280671693e-35	0	0	44.62992012573329	-10.19227665154422	-10.30014275980272	54.44261556914478	0.950202895079103	1.7957280671693e-35	0	0	-8.434489646647032	-2.871504515336287	8.131217807037153	76.48040743513165	6.376949697895765	20.96166853477532	27.576524987627	138.4127560291605	0	0	72.60156703899916	6.186731040070765	12.81055098434802	30.6381921696798	97.86221820749849	0	0
11.37999999999985	-9.503755561480492	-2.228595567675339	27.40375191650178	0	0.9399999999999999	0	44.63005768893658	-10.19202742173274	-10.2998930616822	54.44275454193833	0.9502053206119212	0	0	0	44.63005768893658	-10.19202742173274	-10.2998930616822	54.44275454193833	0.9502053206119212	0	0	0	-8.424718423232543	-2.851541851890359	8.081757063744595	76.39935922478648	6.482737602400817	21.40687367183614	27.49538420041137	137.9753001117822	0	0	72.57699415222065	6.194099831944163	12.78298092780961	30.66613496489379	97.98551044507099	0	0
11.39999999999985	-9.488204847912028	-2.225904507535648	27.50613817319967	0	0.9399999999999999	0	44.63039293087918	-10.19142078973604	-10.29928486796742	54.44309314019596	0.9502112302663582	0	0	0	44.63039293087918	-10.19142078973604	-10.29928486796742	54.44309314019596	0.9502112302663582	0	0	0	-8.412364442347833	-2.840744303493444	8.001454160463846	76.18655436619692	6.360883418993626	22.03924621927298	27.59890625663527	136.608095258506	0	0	72.58417183787802	6.207367395421723	12.75639360671705	30.72070406492121	98.20580044596052	0	0
11.41999999999985	-9.475447771722529	-2.239926156361781	27.5804183316872	0	0.9399999999999999	0	44.63047144615584	-10.1912824834128	-10.29914490193299	54.44317435068039	0.9502126476566988	0	0	0	44.63047144615584	-10.1912824834128	-10.29914490193299	54.44317435068039	0.9502126476566988	0	0	0	-8.409278652363788	-2.852773400500821	7.965575562823872	76.1695569025821	6.385662867523559	21.90926771452482	28.26356943629291	136.132909538	0	0	72.57303084210015	6.231701017969013	12.81339201008731	30.71867950094564	98.20645499534652	0	0
11.43999999999984	-9.462955818992038	-2.234408614579131	27.61364447849516	0	0.9399999999999999	0	44.63076586774871	-10.19075471116802	-10.29861388662066	54.44347381557044	0.9502178743050241	0	0	0	44.63076586774871	-10.19075471116802	-10.29861388662066	54.44347381557044	0.9502178743050241	0	0	0	-8.394165008102838	-2.854660100670602	7.984479330239227	75.26366380141093	5.889601709482031	22.3227931901978	30.09141800310283	135.1934153323826	0	0	72.70994738297338	6.277711206667435	12.80939551711487	30.67998672148636	98.42285630393985	0	0
11.45999999999984	-9.454246370136444	-2.250686846810089	27.54619021944496	0	0.9399999999999999	0	44.63102448598588	-10.19029070871118	-10.29814700990502	54.44373619396872	0.9502224536719603	0	0	0	44.63102448598588	-10.19029070871118	-10.29814700990502	54.44373619396872	0.9502224536719603	0	0	0	-8.390865918117159	-2.889116547903352	8.098094908540775	74.76637671709993	5.645007806633971	21.62417440459555	32.18996072141179	135.1003312693789	0	0	72.83155323708516	6.290220724612655	12.85043308135936	30.7335303896874	98.73422685866113	0	0
11.47999999999984	-9.434523583653293	-2.261133673053262	27.44278177283475	0	0.9399999999999999	0	44.63120079177498	-10.18997508876637	-10.29782912338137	54.44391523223543	0.9502255784792014	0	0	0	44.63120079177498	-10.18997508876637	-10.29782912338137	54.44391523223543	0.9502255784792014	0	0	0	-8.372585613381068	-2.931385011073076	8.262867197319716	74.11336972234345	5.26217265513457	20.65810234615595	34.18541751403558	133.2433953591435	0	0	72.93473668935316	6.338362136558494	12.87442311252716	30.682085594069	98.80645193987996	0	0
11.49999999999984	-9.428096738874034	-2.273616721590817	27.24179608239882	0	0.9399999999999999	0	44.63168221011726	-10.18911328193106	-10.29696035078728	54.444401950695	0.9502340733188512	0	0	0	44.63168221011726	-10.18911328193106	-10.29696035078728	54.444401950695	0.9502340733188512	0	0	0	-8.364370740814334	-2.971058107531199	8.471043742652697	73.34738766490013	4.73561648309058	19.52582479363843	35.94444630397213	129.0298608725385	0	0	73.07718849504134	6.307551412072185	12.86758117739905	30.68874383504917	99.01988111601888	0	0
11.51999999999984	-9.413930770169092	-2.305561639580117	27.08238220779351	0	0.9399999999999999	0	44.63215794296999	-10.18826529140287	-10.29610382446819	54.44488363141885	0.9502424802334257	0	0	0	44.63215794296999	-10.18826529140287	-10.29610382446819	54.44488363141885	0.9502424802334257	0	0	0	-8.356131795411207	-3.03012246937201	8.679714274604793	72.61603128976307	4.190717205407632	18.63234495500685	36.93186587815302	123.2956721205716	0	0	73.24411186268402	6.269415632355605	12.87525624430373	30.7066932012213	99.24989002386708	0	0
